solid 
facet normal -0.5831287832015967 0.7487834503693298 0.3150939013291542
outer loop
vertex -0.5257311121191336 0.85065080835204 0.0
vertex -0.8090169943749475 0.5000000000000001 0.30901699437494745
vertex -0.3090169943749474 0.8090169943749473 0.5
endloop
endfacet
facet normal -0.7487834503693297 0.315093901329154 0.5831287832015968
outer loop
vertex -0.8090169943749475 0.5000000000000001 0.30901699437494745
vertex -0.85065080835204 0.0 0.5257311121191336
vertex -0.5000000000000001 0.30901699437494745 0.8090169943749475
endloop
endfacet
facet normal -0.31509390132915405 0.583128783201597 0.7487834503693295
outer loop
vertex -0.3090169943749474 0.8090169943749473 0.5
vertex -0.5000000000000001 0.30901699437494745 0.8090169943749475
vertex 0.0 0.5257311121191336 0.85065080835204
endloop
endfacet
facet normal -0.5773502691896256 0.5773502691896261 0.5773502691896257
outer loop
vertex -0.8090169943749475 0.5000000000000001 0.30901699437494745
vertex -0.5000000000000001 0.30901699437494745 0.8090169943749475
vertex -0.3090169943749474 0.8090169943749473 0.5
endloop
endfacet
facet normal -0.26803488187244273 0.9435221910385526 0.19473874066922314
outer loop
vertex -0.5257311121191336 0.85065080835204 0.0
vertex -0.3090169943749474 0.8090169943749473 0.5
vertex 0.0 1.0 0.0
endloop
endfacet
facet normal 0.0 0.7778675238708199 0.6284282897093982
outer loop
vertex -0.3090169943749474 0.8090169943749473 0.5
vertex 0.0 0.5257311121191336 0.85065080835204
vertex 0.3090169943749474 0.8090169943749473 0.5
endloop
endfacet
facet normal 0.26803488187244273 0.9435221910385526 0.19473874066922314
outer loop
vertex 0.0 1.0 0.0
vertex 0.3090169943749474 0.8090169943749473 0.5
vertex 0.5257311121191336 0.85065080835204 0.0
endloop
endfacet
facet normal -0.0 0.9341723589627157 0.35682208977309005
outer loop
vertex -0.3090169943749474 0.8090169943749473 0.5
vertex 0.3090169943749474 0.8090169943749473 0.5
vertex 0.0 1.0 0.0
endloop
endfacet
facet normal -0.26803488187244273 0.9435221910385526 -0.19473874066922314
outer loop
vertex -0.5257311121191336 0.85065080835204 0.0
vertex 0.0 1.0 0.0
vertex -0.3090169943749474 0.8090169943749473 -0.5
endloop
endfacet
facet normal 0.26803488187244273 0.9435221910385526 -0.19473874066922314
outer loop
vertex 0.0 1.0 0.0
vertex 0.5257311121191336 0.85065080835204 0.0
vertex 0.3090169943749474 0.8090169943749473 -0.5
endloop
endfacet
facet normal 0.0 0.7778675238708199 -0.6284282897093982
outer loop
vertex -0.3090169943749474 0.8090169943749473 -0.5
vertex 0.3090169943749474 0.8090169943749473 -0.5
vertex 0.0 0.5257311121191336 -0.85065080835204
endloop
endfacet
facet normal 0.0 0.9341723589627157 -0.35682208977309005
outer loop
vertex 0.0 1.0 0.0
vertex 0.3090169943749474 0.8090169943749473 -0.5
vertex -0.3090169943749474 0.8090169943749473 -0.5
endloop
endfacet
facet normal -0.5831287832015967 0.7487834503693298 -0.31509390132915427
outer loop
vertex -0.5257311121191336 0.85065080835204 0.0
vertex -0.3090169943749474 0.8090169943749473 -0.5
vertex -0.8090169943749475 0.5000000000000001 -0.30901699437494745
endloop
endfacet
facet normal -0.31509390132915416 0.5831287832015971 -0.7487834503693296
outer loop
vertex -0.3090169943749474 0.8090169943749473 -0.5
vertex 0.0 0.5257311121191336 -0.85065080835204
vertex -0.5000000000000001 0.30901699437494745 -0.8090169943749475
endloop
endfacet
facet normal -0.7487834503693297 0.315093901329154 -0.5831287832015969
outer loop
vertex -0.8090169943749475 0.5000000000000001 -0.30901699437494745
vertex -0.5000000000000001 0.30901699437494745 -0.8090169943749475
vertex -0.85065080835204 0.0 -0.5257311121191336
endloop
endfacet
facet normal -0.5773502691896256 0.5773502691896261 -0.5773502691896257
outer loop
vertex -0.3090169943749474 0.8090169943749473 -0.5
vertex -0.5000000000000001 0.30901699437494745 -0.8090169943749475
vertex -0.8090169943749475 0.5000000000000001 -0.30901699437494745
endloop
endfacet
facet normal -0.7778675238708197 0.6284282897093985 0.0
outer loop
vertex -0.5257311121191336 0.85065080835204 0.0
vertex -0.8090169943749475 0.5000000000000001 -0.30901699437494745
vertex -0.8090169943749475 0.5000000000000001 0.30901699437494745
endloop
endfacet
facet normal -0.9435221910385526 0.19473874066922287 -0.26803488187244273
outer loop
vertex -0.8090169943749475 0.5000000000000001 -0.30901699437494745
vertex -0.85065080835204 0.0 -0.5257311121191336
vertex -1.0 0.0 0.0
endloop
endfacet
facet normal -0.9435221910385526 0.19473874066922287 0.26803488187244273
outer loop
vertex -0.8090169943749475 0.5000000000000001 0.30901699437494745
vertex -1.0 0.0 0.0
vertex -0.85065080835204 0.0 0.5257311121191336
endloop
endfacet
facet normal -0.9341723589627156 0.35682208977308977 0.0
outer loop
vertex -0.8090169943749475 0.5000000000000001 -0.30901699437494745
vertex -1.0 0.0 0.0
vertex -0.8090169943749475 0.5000000000000001 0.30901699437494745
endloop
endfacet
facet normal 0.5831287832015967 0.7487834503693298 0.31509390132915427
outer loop
vertex 0.5257311121191336 0.85065080835204 0.0
vertex 0.3090169943749474 0.8090169943749473 0.5
vertex 0.8090169943749475 0.5000000000000001 0.30901699437494745
endloop
endfacet
facet normal 0.31509390132915416 0.5831287832015971 0.7487834503693296
outer loop
vertex 0.3090169943749474 0.8090169943749473 0.5
vertex 0.0 0.5257311121191336 0.85065080835204
vertex 0.5000000000000001 0.30901699437494745 0.8090169943749475
endloop
endfacet
facet normal 0.7487834503693297 0.315093901329154 0.5831287832015969
outer loop
vertex 0.8090169943749475 0.5000000000000001 0.30901699437494745
vertex 0.5000000000000001 0.30901699437494745 0.8090169943749475
vertex 0.85065080835204 0.0 0.5257311121191336
endloop
endfacet
facet normal 0.5773502691896256 0.5773502691896261 0.5773502691896257
outer loop
vertex 0.3090169943749474 0.8090169943749473 0.5
vertex 0.5000000000000001 0.30901699437494745 0.8090169943749475
vertex 0.8090169943749475 0.5000000000000001 0.30901699437494745
endloop
endfacet
facet normal -0.19473874066922284 0.2680348818724428 0.9435221910385526
outer loop
vertex 0.0 0.5257311121191336 0.85065080835204
vertex -0.5000000000000001 0.30901699437494745 0.8090169943749475
vertex 0.0 0.0 1.0
endloop
endfacet
facet normal -0.6284282897093985 0.0 0.7778675238708197
outer loop
vertex -0.5000000000000001 0.30901699437494745 0.8090169943749475
vertex -0.85065080835204 0.0 0.5257311121191336
vertex -0.5000000000000001 -0.30901699437494745 0.8090169943749475
endloop
endfacet
facet normal -0.19473874066922284 -0.2680348818724428 0.9435221910385526
outer loop
vertex 0.0 0.0 1.0
vertex -0.5000000000000001 -0.30901699437494745 0.8090169943749475
vertex 0.0 -0.5257311121191336 0.85065080835204
endloop
endfacet
facet normal -0.35682208977308977 0.0 0.9341723589627156
outer loop
vertex -0.5000000000000001 0.30901699437494745 0.8090169943749475
vertex -0.5000000000000001 -0.30901699437494745 0.8090169943749475
vertex 0.0 0.0 1.0
endloop
endfacet
facet normal -0.9435221910385526 -0.19473874066922287 0.26803488187244273
outer loop
vertex -0.85065080835204 0.0 0.5257311121191336
vertex -1.0 0.0 0.0
vertex -0.8090169943749475 -0.5000000000000001 0.30901699437494745
endloop
endfacet
facet normal -0.9435221910385526 -0.19473874066922287 -0.26803488187244273
outer loop
vertex -1.0 0.0 0.0
vertex -0.85065080835204 0.0 -0.5257311121191336
vertex -0.8090169943749475 -0.5000000000000001 -0.30901699437494745
endloop
endfacet
facet normal -0.7778675238708197 -0.6284282897093985 -0.0
outer loop
vertex -0.8090169943749475 -0.5000000000000001 0.30901699437494745
vertex -0.8090169943749475 -0.5000000000000001 -0.30901699437494745
vertex -0.5257311121191336 -0.85065080835204 0.0
endloop
endfacet
facet normal -0.9341723589627156 -0.35682208977308977 0.0
outer loop
vertex -1.0 0.0 0.0
vertex -0.8090169943749475 -0.5000000000000001 -0.30901699437494745
vertex -0.8090169943749475 -0.5000000000000001 0.30901699437494745
endloop
endfacet
facet normal -0.6284282897093985 -0.0 -0.7778675238708197
outer loop
vertex -0.85065080835204 0.0 -0.5257311121191336
vertex -0.5000000000000001 0.30901699437494745 -0.8090169943749475
vertex -0.5000000000000001 -0.30901699437494745 -0.8090169943749475
endloop
endfacet
facet normal -0.19473874066922287 0.26803488187244273 -0.9435221910385526
outer loop
vertex -0.5000000000000001 0.30901699437494745 -0.8090169943749475
vertex 0.0 0.5257311121191336 -0.85065080835204
vertex 0.0 0.0 -1.0
endloop
endfacet
facet normal -0.19473874066922287 -0.26803488187244273 -0.9435221910385526
outer loop
vertex -0.5000000000000001 -0.30901699437494745 -0.8090169943749475
vertex 0.0 0.0 -1.0
vertex 0.0 -0.5257311121191336 -0.85065080835204
endloop
endfacet
facet normal -0.35682208977308977 0.0 -0.9341723589627156
outer loop
vertex -0.5000000000000001 0.30901699437494745 -0.8090169943749475
vertex 0.0 0.0 -1.0
vertex -0.5000000000000001 -0.30901699437494745 -0.8090169943749475
endloop
endfacet
facet normal 0.31509390132915405 0.583128783201597 -0.7487834503693295
outer loop
vertex 0.0 0.5257311121191336 -0.85065080835204
vertex 0.3090169943749474 0.8090169943749473 -0.5
vertex 0.5000000000000001 0.30901699437494745 -0.8090169943749475
endloop
endfacet
facet normal 0.5831287832015967 0.7487834503693298 -0.31509390132915427
outer loop
vertex 0.3090169943749474 0.8090169943749473 -0.5
vertex 0.5257311121191336 0.85065080835204 0.0
vertex 0.8090169943749475 0.5000000000000001 -0.30901699437494745
endloop
endfacet
facet normal 0.7487834503693297 0.315093901329154 -0.5831287832015969
outer loop
vertex 0.5000000000000001 0.30901699437494745 -0.8090169943749475
vertex 0.8090169943749475 0.5000000000000001 -0.30901699437494745
vertex 0.85065080835204 0.0 -0.5257311121191336
endloop
endfacet
facet normal 0.5773502691896256 0.577350269189626 -0.5773502691896257
outer loop
vertex 0.3090169943749474 0.8090169943749473 -0.5
vertex 0.8090169943749475 0.5000000000000001 -0.30901699437494745
vertex 0.5000000000000001 0.30901699437494745 -0.8090169943749475
endloop
endfacet
facet normal 0.5831287832015967 -0.7487834503693298 0.3150939013291542
outer loop
vertex 0.5257311121191336 -0.85065080835204 0.0
vertex 0.8090169943749475 -0.5000000000000001 0.30901699437494745
vertex 0.3090169943749474 -0.8090169943749473 0.5
endloop
endfacet
facet normal 0.7487834503693297 -0.315093901329154 0.5831287832015968
outer loop
vertex 0.8090169943749475 -0.5000000000000001 0.30901699437494745
vertex 0.85065080835204 0.0 0.5257311121191336
vertex 0.5000000000000001 -0.30901699437494745 0.8090169943749475
endloop
endfacet
facet normal 0.31509390132915405 -0.583128783201597 0.7487834503693295
outer loop
vertex 0.3090169943749474 -0.8090169943749473 0.5
vertex 0.5000000000000001 -0.30901699437494745 0.8090169943749475
vertex 0.0 -0.5257311121191336 0.85065080835204
endloop
endfacet
facet normal 0.5773502691896256 -0.5773502691896261 0.5773502691896257
outer loop
vertex 0.8090169943749475 -0.5000000000000001 0.30901699437494745
vertex 0.5000000000000001 -0.30901699437494745 0.8090169943749475
vertex 0.3090169943749474 -0.8090169943749473 0.5
endloop
endfacet
facet normal 0.26803488187244273 -0.9435221910385526 0.19473874066922314
outer loop
vertex 0.5257311121191336 -0.85065080835204 0.0
vertex 0.3090169943749474 -0.8090169943749473 0.5
vertex 0.0 -1.0 0.0
endloop
endfacet
facet normal 0.0 -0.7778675238708199 0.6284282897093982
outer loop
vertex 0.3090169943749474 -0.8090169943749473 0.5
vertex 0.0 -0.5257311121191336 0.85065080835204
vertex -0.3090169943749474 -0.8090169943749473 0.5
endloop
endfacet
facet normal -0.26803488187244273 -0.9435221910385526 0.19473874066922314
outer loop
vertex 0.0 -1.0 0.0
vertex -0.3090169943749474 -0.8090169943749473 0.5
vertex -0.5257311121191336 -0.85065080835204 0.0
endloop
endfacet
facet normal 0.0 -0.9341723589627157 0.35682208977309005
outer loop
vertex 0.3090169943749474 -0.8090169943749473 0.5
vertex -0.3090169943749474 -0.8090169943749473 0.5
vertex 0.0 -1.0 0.0
endloop
endfacet
facet normal 0.26803488187244273 -0.9435221910385526 -0.19473874066922314
outer loop
vertex 0.5257311121191336 -0.85065080835204 0.0
vertex 0.0 -1.0 0.0
vertex 0.3090169943749474 -0.8090169943749473 -0.5
endloop
endfacet
facet normal -0.26803488187244273 -0.9435221910385526 -0.19473874066922314
outer loop
vertex 0.0 -1.0 0.0
vertex -0.5257311121191336 -0.85065080835204 0.0
vertex -0.3090169943749474 -0.8090169943749473 -0.5
endloop
endfacet
facet normal -0.0 -0.7778675238708199 -0.6284282897093982
outer loop
vertex 0.3090169943749474 -0.8090169943749473 -0.5
vertex -0.3090169943749474 -0.8090169943749473 -0.5
vertex 0.0 -0.5257311121191336 -0.85065080835204
endloop
endfacet
facet normal 0.0 -0.9341723589627157 -0.35682208977309005
outer loop
vertex 0.0 -1.0 0.0
vertex -0.3090169943749474 -0.8090169943749473 -0.5
vertex 0.3090169943749474 -0.8090169943749473 -0.5
endloop
endfacet
facet normal 0.5831287832015967 -0.7487834503693298 -0.31509390132915427
outer loop
vertex 0.5257311121191336 -0.85065080835204 0.0
vertex 0.3090169943749474 -0.8090169943749473 -0.5
vertex 0.8090169943749475 -0.5000000000000001 -0.30901699437494745
endloop
endfacet
facet normal 0.31509390132915416 -0.5831287832015971 -0.7487834503693296
outer loop
vertex 0.3090169943749474 -0.8090169943749473 -0.5
vertex 0.0 -0.5257311121191336 -0.85065080835204
vertex 0.5000000000000001 -0.30901699437494745 -0.8090169943749475
endloop
endfacet
facet normal 0.7487834503693297 -0.315093901329154 -0.5831287832015969
outer loop
vertex 0.8090169943749475 -0.5000000000000001 -0.30901699437494745
vertex 0.5000000000000001 -0.30901699437494745 -0.8090169943749475
vertex 0.85065080835204 0.0 -0.5257311121191336
endloop
endfacet
facet normal 0.5773502691896256 -0.5773502691896261 -0.5773502691896257
outer loop
vertex 0.3090169943749474 -0.8090169943749473 -0.5
vertex 0.5000000000000001 -0.30901699437494745 -0.8090169943749475
vertex 0.8090169943749475 -0.5000000000000001 -0.30901699437494745
endloop
endfacet
facet normal 0.7778675238708197 -0.6284282897093985 0.0
outer loop
vertex 0.5257311121191336 -0.85065080835204 0.0
vertex 0.8090169943749475 -0.5000000000000001 -0.30901699437494745
vertex 0.8090169943749475 -0.5000000000000001 0.30901699437494745
endloop
endfacet
facet normal 0.9435221910385526 -0.19473874066922287 -0.26803488187244273
outer loop
vertex 0.8090169943749475 -0.5000000000000001 -0.30901699437494745
vertex 0.85065080835204 0.0 -0.5257311121191336
vertex 1.0 0.0 0.0
endloop
endfacet
facet normal 0.9435221910385526 -0.19473874066922287 0.26803488187244273
outer loop
vertex 0.8090169943749475 -0.5000000000000001 0.30901699437494745
vertex 1.0 0.0 0.0
vertex 0.85065080835204 0.0 0.5257311121191336
endloop
endfacet
facet normal 0.9341723589627156 -0.35682208977308977 0.0
outer loop
vertex 0.8090169943749475 -0.5000000000000001 -0.30901699437494745
vertex 1.0 0.0 0.0
vertex 0.8090169943749475 -0.5000000000000001 0.30901699437494745
endloop
endfacet
facet normal 0.19473874066922284 -0.2680348818724428 0.9435221910385526
outer loop
vertex 0.0 -0.5257311121191336 0.85065080835204
vertex 0.5000000000000001 -0.30901699437494745 0.8090169943749475
vertex 0.0 0.0 1.0
endloop
endfacet
facet normal 0.6284282897093985 0.0 0.7778675238708197
outer loop
vertex 0.5000000000000001 -0.30901699437494745 0.8090169943749475
vertex 0.85065080835204 0.0 0.5257311121191336
vertex 0.5000000000000001 0.30901699437494745 0.8090169943749475
endloop
endfacet
facet normal 0.19473874066922284 0.2680348818724428 0.9435221910385526
outer loop
vertex 0.0 0.0 1.0
vertex 0.5000000000000001 0.30901699437494745 0.8090169943749475
vertex 0.0 0.5257311121191336 0.85065080835204
endloop
endfacet
facet normal 0.35682208977308977 -0.0 0.9341723589627156
outer loop
vertex 0.5000000000000001 -0.30901699437494745 0.8090169943749475
vertex 0.5000000000000001 0.30901699437494745 0.8090169943749475
vertex 0.0 0.0 1.0
endloop
endfacet
facet normal -0.5831287832015967 -0.7487834503693298 0.31509390132915427
outer loop
vertex -0.5257311121191336 -0.85065080835204 0.0
vertex -0.3090169943749474 -0.8090169943749473 0.5
vertex -0.8090169943749475 -0.5000000000000001 0.30901699437494745
endloop
endfacet
facet normal -0.31509390132915416 -0.5831287832015971 0.7487834503693296
outer loop
vertex -0.3090169943749474 -0.8090169943749473 0.5
vertex 0.0 -0.5257311121191336 0.85065080835204
vertex -0.5000000000000001 -0.30901699437494745 0.8090169943749475
endloop
endfacet
facet normal -0.7487834503693297 -0.315093901329154 0.5831287832015969
outer loop
vertex -0.8090169943749475 -0.5000000000000001 0.30901699437494745
vertex -0.5000000000000001 -0.30901699437494745 0.8090169943749475
vertex -0.85065080835204 0.0 0.5257311121191336
endloop
endfacet
facet normal -0.5773502691896256 -0.5773502691896261 0.5773502691896257
outer loop
vertex -0.3090169943749474 -0.8090169943749473 0.5
vertex -0.5000000000000001 -0.30901699437494745 0.8090169943749475
vertex -0.8090169943749475 -0.5000000000000001 0.30901699437494745
endloop
endfacet
facet normal -0.31509390132915405 -0.583128783201597 -0.7487834503693295
outer loop
vertex 0.0 -0.5257311121191336 -0.85065080835204
vertex -0.3090169943749474 -0.8090169943749473 -0.5
vertex -0.5000000000000001 -0.30901699437494745 -0.8090169943749475
endloop
endfacet
facet normal -0.5831287832015967 -0.7487834503693298 -0.31509390132915427
outer loop
vertex -0.3090169943749474 -0.8090169943749473 -0.5
vertex -0.5257311121191336 -0.85065080835204 0.0
vertex -0.8090169943749475 -0.5000000000000001 -0.30901699437494745
endloop
endfacet
facet normal -0.7487834503693297 -0.315093901329154 -0.5831287832015969
outer loop
vertex -0.5000000000000001 -0.30901699437494745 -0.8090169943749475
vertex -0.8090169943749475 -0.5000000000000001 -0.30901699437494745
vertex -0.85065080835204 0.0 -0.5257311121191336
endloop
endfacet
facet normal -0.5773502691896256 -0.577350269189626 -0.5773502691896257
outer loop
vertex -0.3090169943749474 -0.8090169943749473 -0.5
vertex -0.8090169943749475 -0.5000000000000001 -0.30901699437494745
vertex -0.5000000000000001 -0.30901699437494745 -0.8090169943749475
endloop
endfacet
facet normal 0.6284282897093985 0.0 -0.7778675238708197
outer loop
vertex 0.85065080835204 0.0 -0.5257311121191336
vertex 0.5000000000000001 -0.30901699437494745 -0.8090169943749475
vertex 0.5000000000000001 0.30901699437494745 -0.8090169943749475
endloop
endfacet
facet normal 0.19473874066922287 -0.26803488187244273 -0.9435221910385526
outer loop
vertex 0.5000000000000001 -0.30901699437494745 -0.8090169943749475
vertex 0.0 -0.5257311121191336 -0.85065080835204
vertex 0.0 0.0 -1.0
endloop
endfacet
facet normal 0.19473874066922287 0.26803488187244273 -0.9435221910385526
outer loop
vertex 0.5000000000000001 0.30901699437494745 -0.8090169943749475
vertex 0.0 0.0 -1.0
vertex 0.0 0.5257311121191336 -0.85065080835204
endloop
endfacet
facet normal 0.35682208977308977 0.0 -0.9341723589627156
outer loop
vertex 0.5000000000000001 -0.30901699437494745 -0.8090169943749475
vertex 0.0 0.0 -1.0
vertex 0.5000000000000001 0.30901699437494745 -0.8090169943749475
endloop
endfacet
facet normal 0.9435221910385526 0.19473874066922287 0.26803488187244273
outer loop
vertex 0.85065080835204 0.0 0.5257311121191336
vertex 1.0 0.0 0.0
vertex 0.8090169943749475 0.5000000000000001 0.30901699437494745
endloop
endfacet
facet normal 0.9435221910385526 0.19473874066922287 -0.26803488187244273
outer loop
vertex 1.0 0.0 0.0
vertex 0.85065080835204 0.0 -0.5257311121191336
vertex 0.8090169943749475 0.5000000000000001 -0.30901699437494745
endloop
endfacet
facet normal 0.7778675238708197 0.6284282897093985 0.0
outer loop
vertex 0.8090169943749475 0.5000000000000001 0.30901699437494745
vertex 0.8090169943749475 0.5000000000000001 -0.30901699437494745
vertex 0.5257311121191336 0.85065080835204 0.0
endloop
endfacet
facet normal 0.9341723589627156 0.35682208977308977 -0.0
outer loop
vertex 1.0 0.0 0.0
vertex 0.8090169943749475 0.5000000000000001 -0.30901699437494745
vertex 0.8090169943749475 0.5000000000000001 0.30901699437494745
endloop
endfacet

endsolid
